<svg height="511pt" viewBox="1 -21 511.999 511" width="511pt" xmlns="http://www.w3.org/2000/svg"><path d="m481.214844 460.972656h-406.4375c-12.84375 0-23.25-10.40625-23.25-23.25v-406.4375c0-12.839844 10.410156-23.25 23.25-23.25h406.4375c12.84375 0 23.25 10.410156 23.25 23.25v406.4375c0 12.84375-10.410156 23.25-23.25 23.25zm0 0" fill="#e7e7e7"/><path d="m504.464844 31.28125v406.445312c0 12.839844-10.40625 23.246094-23.253906 23.246094h-28.167969c12.847656 0 23.257812-10.40625 23.257812-23.246094v-406.445312c0-12.835938-10.410156-23.246094-23.257812-23.246094h28.167969c12.847656 0 23.253906 10.410156 23.253906 23.246094zm0 0" fill="#cecece"/><path d="m504.464844 87.355469h-452.941406v-56.070313c0-12.839844 10.410156-23.25 23.25-23.25h406.441406c12.839844 0 23.25 10.410156 23.25 23.25zm0 0" fill="#64dcfc"/><path d="m504.464844 31.28125v56.074219h-28.164063v-56.074219c0-12.835938-10.410156-23.246094-23.257812-23.246094h28.167969c12.847656 0 23.253906 10.410156 23.253906 23.246094zm0 0" fill="#00d1fc"/><path d="m115.265625 47.695312c0 8.050782-6.523437 14.574219-14.574219 14.574219-8.050781 0-14.578125-6.523437-14.578125-14.574219 0-8.050781 6.527344-14.578124 14.578125-14.578124 8.050782 0 14.574219 6.527343 14.574219 14.578124zm0 0" fill="#ff6b81"/><path d="m171.558594 47.695312c0 8.050782-6.527344 14.574219-14.578125 14.574219-8.046875 0-14.574219-6.523437-14.574219-14.574219 0-8.050781 6.527344-14.578124 14.574219-14.578124 8.050781 0 14.578125 6.527343 14.578125 14.578124zm0 0" fill="#ffd86e"/><path d="m227.851562 47.695312c0 8.050782-6.527343 14.574219-14.578124 14.574219-8.050782 0-14.574219-6.523437-14.574219-14.574219 0-8.050781 6.523437-14.578124 14.574219-14.578124 8.050781 0 14.578124 6.527343 14.578124 14.578124zm0 0" fill="#80e0dc"/><path d="m115.261719 47.699219c0 8.046875-6.519531 14.566406-14.566407 14.566406-3.898437 0-7.445312-1.527344-10.054687-4.027344 7.886719-.171875 14.234375-6.621093 14.234375-14.558593 0-4.15625-1.738281-7.894532-4.519531-10.546876.109375-.007812.230469-.007812.339843-.007812 8.046876 0 14.566407 6.519531 14.566407 14.574219zm0 0" fill="#ff435f"/><path d="m171.554688 47.699219c0 8.046875-6.519532 14.566406-14.574219 14.566406-3.898438 0-7.433594-1.527344-10.054688-4.027344 7.894531-.171875 14.242188-6.621093 14.242188-14.558593 0-4.15625-1.738281-7.894532-4.519531-10.546876.109374-.007812.222656-.007812.332031-.007812 8.054687 0 14.574219 6.519531 14.574219 14.574219zm0 0" fill="#ffb509"/><path d="m227.851562 47.699219c0 8.046875-6.53125 14.566406-14.578124 14.566406-3.898438 0-7.433594-1.527344-10.054688-4.027344 7.894531-.171875 14.234375-6.621093 14.234375-14.558593 0-4.15625-1.738281-7.894532-4.519531-10.546876.109375-.007812.230468-.007812.339844-.007812 8.046874 0 14.578124 6.519531 14.578124 14.574219zm0 0" fill="#00a8b0"/><path d="m447.574219 342.765625h-216.6875c-7.210938 0-13.058594-5.847656-13.058594-13.058594v-141.863281c0-7.214844 5.847656-13.058594 13.058594-13.058594h216.6875c7.210937 0 13.058593 5.84375 13.058593 13.058594v141.863281c0 7.210938-5.847656 13.058594-13.058593 13.058594zm0 0" fill="#ff6b81"/><path d="m460.628906 187.84375v141.859375c0 7.214844-5.847656 13.058594-13.058594 13.058594h-15.851562c7.210938 0 13.058594-5.84375 13.058594-13.058594v-141.859375c0-7.214844-5.847656-13.058594-13.058594-13.058594h15.851562c7.210938 0 13.058594 5.847656 13.058594 13.058594zm0 0" fill="#ff435f"/><path d="m456.390625 178.210938-114.003906 92.117187c-1.839844 1.488281-4.472657 1.488281-6.3125 0l-114.003907-92.117187c2.320313-2.128907 5.414063-3.425782 8.820313-3.425782h216.679687c3.402344 0 6.496094 1.296875 8.820313 3.425782zm0 0" fill="#e32929"/><path d="m456.390625 178.210938-114.007813 92.117187c-1.835937 1.484375-4.46875 1.484375-6.308593 0l-8.816407-7.125c.21875-.128906.429688-.269531.640626-.441406l108.882812-87.976563h10.789062c3.402344 0 6.496094 1.296875 8.820313 3.425782zm0 0" fill="#cb223b"/><path d="m461.878906 173.0625c-.28125-.300781-.582031-.570312-.898437-.816406-3.609375-3.105469-8.289063-4.996094-13.410157-4.996094h-48.589843c-4.164063 0-7.535157 3.371094-7.535157 7.535156 0 4.160156 3.371094 7.53125 7.535157 7.53125h40.335937l-100.085937 80.875-100.089844-80.875h113.628906c4.160157 0 7.535157-3.371094 7.535157-7.53125 0-4.164062-3.375-7.535156-7.535157-7.535156h-121.882812c-5.121094 0-9.796875 1.890625-13.40625 4.992188-.320313.246093-.621094.519531-.90625.824218-3.863281 3.746094-6.28125 8.980469-6.28125 14.777344v141.863281c0 11.355469 9.238281 20.59375 20.59375 20.59375h216.6875c11.355469 0 20.59375-9.238281 20.59375-20.59375v-141.863281c-.003907-5.800781-2.417969-11.035156-6.289063-14.78125zm-8.78125 156.644531c0 .460938-.0625.910157-.171875 1.339844l-72.457031-81.804687 72.628906-58.6875zm-113.867187-50.75c2.800781 0 5.605469-.921875 7.890625-2.769531l21.617187-17.46875 67.769531 76.515625h-194.554687l67.769531-76.515625 21.613282 17.46875c2.289062 1.847656 5.089843 2.769531 7.894531 2.769531zm-113.871094 50.75v-139.152343l72.628906 58.6875-72.457031 81.804687c-.105469-.429687-.171875-.878906-.171875-1.339844zm0 0"/><path d="m100.691406 25.585938c-12.191406 0-22.113281 9.917968-22.113281 22.109374 0 12.191407 9.917969 22.109376 22.113281 22.109376 12.191406 0 22.109375-9.917969 22.109375-22.109376 0-12.191406-9.917969-22.109374-22.109375-22.109374zm0 29.152343c-3.882812 0-7.042968-3.160156-7.042968-7.042969 0-3.882812 3.160156-7.042968 7.042968-7.042968 3.882813 0 7.039063 3.160156 7.039063 7.042968 0 3.882813-3.15625 7.042969-7.039063 7.042969zm0 0"/><path d="m156.980469 25.585938c-12.191407 0-22.109375 9.917968-22.109375 22.109374 0 12.191407 9.917968 22.109376 22.109375 22.109376 12.191406 0 22.109375-9.917969 22.109375-22.109376.003906-12.191406-9.917969-22.109374-22.109375-22.109374zm0 29.152343c-3.882813 0-7.039063-3.160156-7.039063-7.042969 0-3.882812 3.15625-7.042968 7.039063-7.042968 3.882812 0 7.042969 3.160156 7.042969 7.042968 0 3.882813-3.160157 7.042969-7.042969 7.042969zm0 0"/><path d="m213.273438 25.585938c-12.191407 0-22.109376 9.917968-22.109376 22.109374 0 12.191407 9.917969 22.109376 22.109376 22.109376 12.191406 0 22.109374-9.917969 22.109374-22.109376 0-12.191406-9.917968-22.109374-22.109374-22.109374zm0 29.152343c-3.882813 0-7.042969-3.160156-7.042969-7.042969 0-3.882812 3.160156-7.042968 7.042969-7.042968 3.882812 0 7.042968 3.160156 7.042968 7.042968 0 3.882813-3.160156 7.042969-7.042968 7.042969zm0 0"/><path d="m487.410156 1.125c-2-.410156-4.070312-.625-6.195312-.625h-406.441406c-2.121094 0-4.191407.214844-6.195313.625-14.011719 2.875-24.585937 15.304688-24.585937 30.160156v196.804688h-36.449219c-4.160157 0-7.5351565 3.375-7.5351565 7.535156s3.3749995 7.535156 7.5351565 7.535156h36.449219v122.9375c0 4.164063 3.371093 7.535156 7.53125 7.535156 4.164062 0 7.535156-3.371093 7.535156-7.535156v-122.941406h45.507812c4.160156 0 7.535156-3.371094 7.535156-7.53125 0-4.164062-3.375-7.535156-7.535156-7.535156h-45.507812v-133.199219h437.871094v342.832031c0 8.667969-7.046876 15.71875-15.714844 15.71875h-406.441406c-8.664063 0-15.714844-7.050781-15.714844-15.71875v-24.800781c0-4.160156-3.371094-7.535156-7.535156-7.535156-4.160157 0-7.53125 3.375-7.53125 7.535156v24.800781c0 16.976563 13.808593 30.785156 30.78125 30.785156h406.441406c16.972656 0 30.785156-13.808593 30.785156-30.785156v-406.4375c0-14.855468-10.574219-27.285156-24.589844-30.160156zm9.523438 78.695312h-437.875v-48.535156c0-8.125 6.199218-14.828125 14.113281-15.636718.527344-.054688 1.0625-.078126 1.605469-.078126h406.4375c.542968 0 1.078125.027344 1.605468.078126 7.914063.808593 14.113282 7.511718 14.113282 15.636718zm0 0"/><path d="m184.523438 185.890625c0-4.160156-3.371094-7.53125-7.53125-7.53125h-69.164063c-4.160156 0-7.53125 3.371094-7.53125 7.53125 0 4.164063 3.371094 7.535156 7.53125 7.535156h69.164063c4.160156 0 7.53125-3.371093 7.53125-7.535156zm0 0"/><path d="m70.496094 178.359375c-4.160156 0-7.535156 3.371094-7.535156 7.53125 0 4.164063 3.375 7.535156 7.535156 7.535156h14.734375c4.160156 0 7.53125-3.371093 7.53125-7.535156 0-4.160156-3.371094-7.53125-7.53125-7.53125zm0 0"/><path d="m177.320312 324.121094h-23.691406c-4.160156 0-7.53125 3.375-7.53125 7.535156s3.371094 7.535156 7.53125 7.535156h23.691406c4.160157 0 7.535157-3.375 7.535157-7.535156s-3.375-7.535156-7.535157-7.535156zm0 0"/><path d="m35.578125 275.511719h-28.042969c-4.164062 0-7.535156 3.371093-7.535156 7.535156 0 4.160156 3.371094 7.53125 7.535156 7.53125h28.042969c4.160156 0 7.53125-3.371094 7.53125-7.53125 0-4.164063-3.371094-7.535156-7.53125-7.535156zm0 0"/><path d="m27.46875 324.121094h-19.933594c-4.164062 0-7.535156 3.375-7.535156 7.535156s3.371094 7.535156 7.535156 7.535156h19.933594c4.160156 0 7.53125-3.375 7.53125-7.535156s-3.371094-7.535156-7.53125-7.535156zm0 0"/><path d="m72.433594 283.046875c0 4.160156 3.371094 7.53125 7.535156 7.53125h97.023438c4.160156 0 7.53125-3.371094 7.53125-7.53125 0-4.164063-3.371094-7.535156-7.53125-7.535156h-97.023438c-4.164062 0-7.535156 3.371093-7.535156 7.535156zm0 0"/><path d="m62.960938 331.65625c0 4.160156 3.375 7.535156 7.535156 7.535156h54.519531c4.160156 0 7.53125-3.375 7.53125-7.535156s-3.371094-7.535156-7.53125-7.535156h-54.519531c-4.160156 0-7.535156 3.375-7.535156 7.535156zm0 0"/><path d="m7.542969 193.425781h21.804687c4.160156 0 7.535156-3.371093 7.535156-7.535156 0-4.160156-3.375-7.53125-7.535156-7.53125h-21.804687c-4.160157 0-7.5351565 3.371094-7.5351565 7.53125 0 4.164063 3.3749995 7.535156 7.5351565 7.535156zm0 0"/><path d="m130.269531 243.15625h46.722657c4.160156 0 7.53125-3.371094 7.53125-7.53125 0-4.164062-3.371094-7.535156-7.53125-7.535156h-46.722657c-4.164062 0-7.535156 3.371094-7.535156 7.535156 0 4.160156 3.375 7.53125 7.535156 7.53125zm0 0"/></svg>